<!-- Created with Inkscape (http://www.inkscape.org/) -->

<svg xmlns:rdf="http://www.w3.org/1999/02/22-rdf-syntax-ns#" xmlns="http://www.w3.org/2000/svg" version="1.0" xmlns:cc="http://creativecommons.org/ns#" xmlns:dc="http://purl.org/dc/elements/1.1/" viewBox="0 0 401 600">

 <metadata>

  <rdf:RDF>

   <cc:Work rdf:about="">

    <dc:format>image/svg+xml</dc:format>

    <dc:type rdf:resource="http://purl.org/dc/dcmitype/StillImage"/>

    <dc:title/>

   </cc:Work>

  </rdf:RDF>

 </metadata>

 <defs></defs>

 <path fill="#ffffff" d="M149,597c-34-3-63.4-11-89-23-20.1-9-32.4-18-43.2-29-5.9-6-12.5-17-12.6-22-0.06-2-0.16-2-0.86-1-1.13,3-1.93-4-1-9,0.38-2,0.78-3,0.88-2s0.83-1,1.63-4c2.05-8,6.29-16,14.4-28,10.6-16,19.7-27,42-50,11.3-12,20.5-23,20.5-24s-3.7-4-10.5-9c-11.8-7-22.7-18-25.7-24-7.2-14-3.4-32,11.1-54,5.3-7,27-30,41.8-42,6.6-6,11.6-11,11.6-12s-2-3-5-5c-16.9-8-36.9-26-46.9-41-15.6-24-22.2-46-22.2-74,0-22,3.6-39,12-56.9,11.9-26.3,39.4-54.1,67.1-67.9,25-11.2,54-17.8,77-18,31,0.85,63,9.67,91,25l5,3.3,53,0.5,53,0.5,3,2.8c1,1.5,2,4,2,5.5,0,2.3,0,2.4,1,0.7,1-1.5,1-0.9,1,2.6,1,6.3,0,16-1,13.3-1-1.7-1-1.6-1,0.7,0,1.4-1,3.7-2,5-1,2.1-3,2.4-11,3-6,0.4-22,0.7-37,0.8-23,0-28,0.3-28,1.4,0,0.8,1,3.9,3,6.8,9,13.7,15,28.9,18,45.9,2,13,2,40,0,51-5,26-17,47-37,67-23,22-49,34-85,39-11,2-41,3-50,1-13-1-20-2-30-5l-11-2-5,5c-7,6-18,18-22,24-3.8,7-6.8,17-6.8,23,0,5,4.3,14,8.8,17,12,8,24,10,74,12,92,3,109,4,129,7,34,4,60,19,75,42,10,15,13,27,12,49,0,12-1,16-3,23-14,47-64,92-124,112-22,7-52,13-71,13h-47zm101-49c34-3,61-12,79-25,21-16,34-32,37-49,2-9,1-22-2-29-11-20-35-26-118-29-54-2-95-4-124-8-20-2-19-2-27,8-16.7,19-27.6,38-31.9,53-3,12-2.4,23,1.6,32,11.6,24,56.3,43,111,48,17,1,60,1,74-1zm-41-287c10-2,18-5,25-10,21-14,32-33,37-67,2-10,2-45,0-57-6-49.6-25-85.5-54-100-19-9.9-46-10.2-64-0.7-24,12.1-39,34.2-44,67.7-5,29.5-2,72.5,7,100,4,13,13,29,21,39,18,23,44,33,72,28z"/>

</svg>

