<svg xmlns="http://www.w3.org/2000/svg" style="display: none;">
  
    <symbol id="icon-star" viewBox="0 0 512 512">
      <path d="m343 287l88-85l-121-18l-54-109l-54 109l-121 18l88 85l-21 120l108-57l108 57z m151-102c0 4-3 9-8 14l-103 101l24 143c0 1 0 3 0 5c0 10-3 15-11 15c-4 0-8-2-12-4l-128-67l-128 67c-4 2-8 4-12 4c-4 0-7-2-9-5c-2-2-3-6-3-10c0-1 0-3 1-5l24-143l-104-101c-4-6-7-10-7-14c0-7 6-12 16-13l144-21l64-130c4-8 8-12 14-12c6 0 10 4 14 12l64 130l144 21c10 1 16 6 16 13z"/>
    </symbol>
  
    <symbol id="icon-star-two" viewBox="0 0 512 512">
      <path d="m494 185c0 4-3 9-8 14l-103 101l24 143c0 1 0 3 0 5c0 4-1 8-3 10c-2 3-4 5-8 5c-4 0-8-2-12-4l-128-67l-128 67c-4 2-8 4-12 4c-4 0-7-2-9-5c-2-2-3-6-3-10c0-1 0-3 1-5l24-143l-104-101c-4-6-7-10-7-14c0-7 6-12 16-13l144-21l64-130c4-8 8-12 14-12c6 0 10 4 14 12l64 130l144 21c10 1 16 6 16 13z"/>
    </symbol>
  
    <symbol id="icon-star-half" viewBox="0 0 512 512">
      <path d="m357 273l74-71l-102-15l-19-3l-9-17l-45-92l0 275l17 9l91 48l-17-101l-4-19z m129-74l-103 101l24 143c1 6 1 11-2 14c-2 4-5 6-9 6c-4 0-7-2-12-4l-128-67l-128 67c-5 2-8 4-12 4c-4 0-7-2-9-6c-3-3-3-8-2-14l24-143l-104-101c-6-7-8-12-6-17c2-6 7-9 15-10l144-21l64-130c4-8 8-12 14-12c5 0 10 4 14 12l64 130l144 21c8 1 13 4 15 10c2 5 0 10-7 17z"/>
    </symbol>
  
    <symbol id="icon-check" viewBox="0 0 512 512">
      <path d="m384 96l-192 192-64-64-64 64 128 128 256-256z"/>
    </symbol>
  
    <symbol id="icon-circle-slash" viewBox="0 0 512 512">
      <path d="m256 96c-88 0-160 72-160 160 0 88 72 160 160 160 88 0 160-72 160-160 0-88-72-160-160-160z m0 64c14 0 27 3 39 8l-127 127c-5-12-8-25-8-39 0-53 43-96 96-96z m0 192c-14 0-27-3-39-9l127-126c5 12 8 25 8 39 0 53-43 96-96 96z"/>
    </symbol>
  
    <symbol id="icon-pencil" viewBox="0 0 512 512">
      <path d="m384 32l-64 64 96 96 64-64z m-352 352l0 96 96 0 256-256-96-96z m96 64l-64 0 0-64 32 0 0 32 32 0z"/>
    </symbol>
  
    <symbol id="icon-x" viewBox="0 0 512 512">
      <path d="m416 160l-64-64-96 96-96-96-64 64 96 96-96 96 64 64 96-96 96 96 64-64-96-96z"/>
    </symbol>
  
    <symbol id="icon-code" viewBox="0 0 512 512">
      <path d="m336 96l-48 48 112 112-112 112 48 48 144-160z m-160 0l-144 160 144 160 48-48-112-112 112-112z"/>
    </symbol>
  
</svg>
